<svg width="36.000000" height="36.000000" viewBox="0 0 36 36" fill="none" xmlns="http://www.w3.org/2000/svg" xmlns:xlink="http://www.w3.org/1999/xlink">
	<desc>
			Created with Pixso.
	</desc>
	<defs>
		<clipPath id="clip60_592">
			<rect id="Property 1=Variant2" width="36.000000" height="36.000000" fill="white" fill-opacity="0"/>
		</clipPath>
	</defs>
	<rect id="Property 1=Variant2" width="36.000000" height="36.000000" fill="#FFFFFF" fill-opacity="0"/>
	<g clip-path="url(#clip60_592)">
		<path id="Vector" d="M24 10.5C24 10.1 24.15 9.72 24.43 9.43C24.72 9.15 25.1 9 25.5 9C25.89 9 26.27 9.15 26.56 9.43C26.84 9.72 27 10.1 27 10.5C27 10.89 26.84 11.27 26.56 11.56C26.27 11.84 25.89 12 25.5 12C25.1 12 24.72 11.84 24.43 11.56C24.15 11.27 24 10.89 24 10.5Z" fill="#FFE0CB" fill-opacity="1.000000" fill-rule="nonzero"/>
		<path id="Vector" d="M18 10.87C16.11 10.87 14.29 11.62 12.96 12.96C11.62 14.29 10.87 16.11 10.87 18C10.87 19.88 11.62 21.7 12.96 23.03C14.29 24.37 16.11 25.12 18 25.12C19.88 25.12 21.7 24.37 23.03 23.03C24.37 21.7 25.12 19.88 25.12 18C25.12 16.11 24.37 14.29 23.03 12.96C21.7 11.62 19.88 10.87 18 10.87ZM13.12 18C13.12 16.7 13.63 15.46 14.55 14.55C15.46 13.63 16.7 13.12 18 13.12C19.29 13.12 20.53 13.63 21.44 14.55C22.36 15.46 22.87 16.7 22.87 18C22.87 19.29 22.36 20.53 21.44 21.44C20.53 22.36 19.29 22.87 18 22.87C16.7 22.87 15.46 22.36 14.55 21.44C13.63 20.53 13.12 19.29 13.12 18Z" fill="#FFE0CB" fill-opacity="1.000000" fill-rule="evenodd"/>
		<path id="Vector" d="M25.79 4.42C20.61 3.85 15.38 3.85 10.2 4.42C7.22 4.76 4.81 7.1 4.46 10.1C3.84 15.34 3.84 20.65 4.46 25.89C4.81 28.89 7.21 31.23 10.2 31.57C15.38 32.14 20.61 32.14 25.79 31.57C28.77 31.23 31.18 28.89 31.53 25.89C32.15 20.65 32.15 15.34 31.53 10.1C31.18 7.1 28.78 4.76 25.79 4.42ZM10.44 6.63C15.46 6.08 20.53 6.08 25.55 6.63C27.52 6.85 29.1 8.41 29.33 10.36C29.92 15.43 29.92 20.56 29.33 25.63C29.21 26.59 28.77 27.48 28.08 28.15C27.4 28.83 26.5 29.25 25.55 29.36C20.53 29.91 15.46 29.91 10.44 29.36C9.49 29.25 8.59 28.83 7.91 28.15C7.22 27.48 6.78 26.59 6.66 25.63C6.07 20.56 6.07 15.43 6.66 10.36C6.78 9.4 7.22 8.51 7.91 7.84C8.59 7.16 9.49 6.74 10.44 6.63Z" fill="#FFE0CB" fill-opacity="1.000000" fill-rule="evenodd"/>
	</g>
</svg>
